<svg width="183" height="61" viewBox="0 0 183 61" fill="none" xmlns="http://www.w3.org/2000/svg">
<g filter="url(#filter0_d_345_661)">
<path d="M11.0159 46V17.9888H1.0119V12.2854H27.8042V17.9888H17.8232V46H11.0159ZM27.1832 33.4433C27.1832 31.2968 27.7122 29.2194 28.7701 27.2109C29.828 25.2024 31.3228 23.6693 33.2546 22.6114C35.2018 21.5535 37.3712 21.0245 39.763 21.0245C43.4579 21.0245 46.486 22.2281 48.8471 24.6352C51.2081 27.0269 52.3887 30.0549 52.3887 33.7192C52.3887 37.4142 51.1928 40.4806 48.8011 42.9183C46.4246 45.3407 43.4273 46.5519 39.809 46.5519C37.5705 46.5519 35.4317 46.046 33.3926 45.0341C31.3688 44.0222 29.828 42.5427 28.7701 40.5955C27.7122 38.6331 27.1832 36.249 27.1832 33.4433ZM33.8066 33.7882C33.8066 36.2107 34.3815 38.0658 35.5314 39.3537C36.6813 40.6415 38.0995 41.2855 39.786 41.2855C41.4725 41.2855 42.883 40.6415 44.0175 39.3537C45.1674 38.0658 45.7424 36.1953 45.7424 33.7422C45.7424 31.3505 45.1674 29.5107 44.0175 28.2228C42.883 26.9349 41.4725 26.291 39.786 26.291C38.0995 26.291 36.6813 26.9349 35.5314 28.2228C34.3815 29.5107 33.8066 31.3658 33.8066 33.7882ZM54.4125 21.5765H61.2888L67.1302 38.9167L72.8336 21.5765H79.5259L70.9018 45.0801L69.361 49.3347C68.7937 50.7605 68.2494 51.8491 67.7281 52.6003C67.2222 53.3516 66.6319 53.9572 65.9573 54.4171C65.2981 54.8924 64.4778 55.2604 63.4966 55.521C62.5307 55.7817 61.4344 55.912 60.2079 55.912C58.966 55.912 57.7472 55.7817 56.5513 55.521L55.9763 50.4615C56.9882 50.6609 57.9005 50.7605 58.7131 50.7605C60.2156 50.7605 61.3271 50.3159 62.0477 49.4267C62.7683 48.5527 63.3203 47.4335 63.7035 46.069L54.4125 21.5765Z" fill="#FFE57F"/>
</g>
<g filter="url(#filter1_d_345_661)">
<path d="M84.6106 46V12.5614H91.4179V40.3196H108.344V46H84.6106ZM113.174 18.2648V12.2854H119.636V18.2648H113.174ZM113.174 46V21.5765H119.636V46H113.174ZM148.498 46H142.036V33.5353C142.036 30.8982 141.898 29.1964 141.622 28.4298C141.346 27.6479 140.894 27.0423 140.265 26.613C139.652 26.1837 138.908 25.969 138.034 25.969C136.915 25.969 135.911 26.2757 135.022 26.8889C134.132 27.5022 133.519 28.3148 133.182 29.3267C132.86 30.3386 132.699 32.2091 132.699 34.9381V46H126.236V21.5765H132.239V25.1641C134.37 22.4044 137.053 21.0245 140.288 21.0245C141.714 21.0245 143.017 21.2852 144.198 21.8065C145.378 22.3124 146.267 22.964 146.865 23.7613C147.479 24.5585 147.9 25.4631 148.13 26.475C148.376 27.4869 148.498 28.9357 148.498 30.8215V46ZM154.846 46V12.2854H161.308V30.1776L168.874 21.5765H176.831L168.483 30.4996L177.429 46H170.461L164.321 35.0301L161.308 38.1808V46H154.846Z" fill="#34C3F1"/>
</g>
<defs>
<filter id="filter0_d_345_661" x="1.01196" y="12.2856" width="83.224" height="48.3364" filterUnits="userSpaceOnUse" color-interpolation-filters="sRGB">
<feFlood flood-opacity="0" result="BackgroundImageFix"/>
<feColorMatrix in="SourceAlpha" type="matrix" values="0 0 0 0 0 0 0 0 0 0 0 0 0 0 0 0 0 0 127 0" result="hardAlpha"/>
<feOffset dx="2.35496" dy="2.35496"/>
<feGaussianBlur stdDeviation="1.17748"/>
<feComposite in2="hardAlpha" operator="out"/>
<feColorMatrix type="matrix" values="0 0 0 0 0 0 0 0 0 0 0 0 0 0 0 0 0 0 0.25 0"/>
<feBlend mode="normal" in2="BackgroundImageFix" result="effect1_dropShadow_345_661"/>
<feBlend mode="normal" in="SourceGraphic" in2="effect1_dropShadow_345_661" result="shape"/>
</filter>
<filter id="filter1_d_345_661" x="84.6106" y="12.2856" width="97.5285" height="38.4243" filterUnits="userSpaceOnUse" color-interpolation-filters="sRGB">
<feFlood flood-opacity="0" result="BackgroundImageFix"/>
<feColorMatrix in="SourceAlpha" type="matrix" values="0 0 0 0 0 0 0 0 0 0 0 0 0 0 0 0 0 0 127 0" result="hardAlpha"/>
<feOffset dx="2.35496" dy="2.35496"/>
<feGaussianBlur stdDeviation="1.17748"/>
<feComposite in2="hardAlpha" operator="out"/>
<feColorMatrix type="matrix" values="0 0 0 0 0 0 0 0 0 0 0 0 0 0 0 0 0 0 0.25 0"/>
<feBlend mode="normal" in2="BackgroundImageFix" result="effect1_dropShadow_345_661"/>
<feBlend mode="normal" in="SourceGraphic" in2="effect1_dropShadow_345_661" result="shape"/>
</filter>
</defs>
</svg>
